<svg width="50" height="36" viewBox="0 0 210 36" fill="none" xmlns="http://www.w3.org/2000/svg">
<path fill-rule="evenodd" clip-rule="evenodd" d="M127.584 12.895C127.278 7.41273 122.56 3.25161 118.686 1.87655C114.939 0.546433 111.074 0.528457 107.227 1.35529C100.577 2.78427 96.7752 7.04425 95.1485 13.4073C94.3307 16.6157 94.4205 19.8871 95.0856 23.1585C95.9304 27.3376 98.1772 30.7258 101.61 32.9816C107.928 37.1427 116.628 36.9899 122.695 32.5951C125.094 30.8606 126.523 28.443 127.26 25.621C127.351 25.2748 127.303 24.8917 127.248 24.4578V24.4578V24.4577L127.248 24.4576C127.222 24.2494 127.194 24.0296 127.179 23.7966C126.338 23.8352 125.524 23.8138 124.725 23.7928H124.725H124.725H124.725C123.295 23.7552 121.915 23.7189 120.52 24.0302C119.181 28.5958 115.478 29.4496 111.532 30.0158C111.392 29.9838 111.246 29.9498 111.097 29.9148L111.097 29.9148L111.097 29.9148C110.7 29.8222 110.276 29.7231 109.852 29.6383C105.906 28.8205 103.264 26.5107 102.32 22.5923C101.889 20.8128 101.754 18.8985 101.835 17.0561C102.096 11.2144 104.891 7.85311 110.292 6.85552C113.572 6.24438 118.444 7.32286 120.025 11.8075C120.133 12.1004 120.261 12.3868 120.409 12.7175L120.409 12.7176L120.409 12.7179L120.484 12.886C122.838 12.895 125.121 12.895 127.584 12.895ZM7.22579 22.8799C7.62271 22.8799 7.97801 22.8838 8.30518 22.8875H8.30527C8.96331 22.8948 9.50756 22.9009 10.0478 22.8709C10.655 22.8387 11.264 22.8135 11.8735 22.7884C13.6452 22.7152 15.4204 22.642 17.1657 22.3946C19.817 22.0081 22.1087 20.7768 23.6995 18.512C26.171 14.998 26.4856 11.2054 24.8768 7.2869C23.9691 5.08501 22.3874 3.3954 20.2034 2.35288C18.2262 1.40921 16.0962 0.986812 13.9393 0.950863C10.6606 0.892445 7.38187 0.911156 4.10316 0.929868C3.34658 0.934186 2.58999 0.938503 1.83341 0.941874C1.45348 0.941874 1.07759 1.00662 0.656869 1.0791L0.656865 1.0791L0.65686 1.0791L0.656855 1.0791C0.450598 1.11463 0.233566 1.15201 0 1.18453V3.35047L2.08791e-06 3.35096L2.19792e-06 3.35098C0.0449379 13.8839 0.0898737 24.4169 0.143797 34.9498C0.143797 34.989 0.186436 35.0328 0.226997 35.0746L0.227007 35.0746L0.227013 35.0746C0.242311 35.0904 0.257314 35.1058 0.26962 35.1206L0.43139 35.2823C3.40618 35.6418 5.49124 35.5519 7.2168 34.9318C7.22579 31.0763 7.22579 27.1398 7.22579 22.8799ZM164.746 33.1703C165.178 33.4238 165.593 33.6902 166.001 33.9524C166.866 34.5082 167.701 35.045 168.611 35.3992C170.84 36.2619 173.14 35.9743 175.414 35.3632C179.395 34.2937 182.784 29.854 182.972 25.7648C183.053 24.1291 183.134 22.4665 182.954 20.8398C182.586 17.4695 181.301 14.5576 178.407 12.4905C176.825 11.3581 175.073 10.9088 173.23 10.5852C170.597 10.1269 168.215 10.6392 166.076 12.2479C165.806 12.4502 165.553 12.6776 165.206 12.9901L165.205 12.9905L165.205 12.9907C165.043 13.1361 164.861 13.2999 164.647 13.4881C164.583 11.2527 164.59 9.10213 164.598 6.98882V6.98862V6.98843V6.98691V6.98648V6.98605V6.98562C164.606 4.69904 164.614 2.45597 164.53 0.195926C162.212 -0.0197687 160.172 -0.127612 158.033 0.249855V35.3003H164.396C164.455 34.9361 164.511 34.5998 164.563 34.2844L164.564 34.2785C164.63 33.8803 164.691 33.5156 164.746 33.1703ZM209.386 24.6773C209.593 20.3904 208.811 16.7505 206.052 13.9735C202.358 10.2347 197.792 9.61461 192.849 11.1694C190.054 12.0502 188.086 13.9195 186.711 16.391C185.156 19.1861 184.572 22.1699 185.201 25.3963C185.866 28.8384 187.358 31.7144 190.288 33.7095C195.114 36.9989 201.918 36.7383 206.645 32.5682C208.101 31.292 208.829 29.5035 209.116 27.5083H203.023C202.679 28.0348 202.367 28.5002 202.078 28.9317L201.885 29.2195L201.756 29.4136C199.158 30.9325 196.525 31.1212 194.054 29.6024C192.49 28.6407 191.286 27.1398 191.717 24.6863C193.188 24.6863 194.647 24.684 196.1 24.6818L196.102 24.6818C197.544 24.6795 198.98 24.6773 200.417 24.6773C202.339 24.6714 204.254 24.6733 206.244 24.6753L206.248 24.6753C207.271 24.6763 208.313 24.6773 209.386 24.6773ZM26.0092 23.1675C25.443 31.0134 32.0577 36.0103 38.7263 35.8935C46.8058 35.7497 51.9196 30.7168 51.8567 23.1315C51.8028 15.681 46.6171 10.5403 38.7982 10.4055C31.4016 10.2797 25.3621 16.2742 26.0092 23.1675ZM147.275 35.3093L147.548 35.3279C149.687 35.4743 151.643 35.6081 153.566 35.2374C154.006 32.7839 153.925 12.6883 153.467 10.9178C151.454 10.747 149.414 10.6212 147.23 11.0166C147.218 11.2964 147.202 11.5658 147.188 11.8281L147.188 11.8294L147.188 11.8305V11.8306V11.8307C147.158 12.3427 147.131 12.8275 147.131 13.3084C147.128 14.6693 147.13 16.0291 147.133 17.3886V17.389V17.3895V17.3899C147.137 19.8365 147.142 22.282 147.113 24.7312C147.086 27.5173 145.271 29.7911 142.961 30.0607C139.681 30.4292 137.874 29.2159 137.038 26.0074C136.85 25.2974 136.814 24.5335 136.814 23.7966C136.805 22.0036 136.805 20.2129 136.805 18.4222C136.805 16.6314 136.805 14.8407 136.796 13.0478C136.796 12.5562 136.744 12.0689 136.688 11.5442C136.664 11.3111 136.638 11.0705 136.616 10.8189C135.96 10.8298 135.327 10.8143 134.709 10.7991C133.287 10.7642 131.94 10.7312 130.549 11.0256C130.549 12.6387 130.543 14.2361 130.537 15.8221V15.8236V15.8251V15.8265C130.521 20.0181 130.506 24.1296 130.603 28.2363C130.639 29.9349 131.493 31.5166 132.644 32.8647C135.969 36.7652 142.377 36.927 145.837 33.377C146.029 33.1791 146.244 33.0076 146.508 32.7966C146.651 32.6818 146.81 32.5553 146.987 32.4064C147.086 33.4579 147.167 34.2578 147.275 35.3093ZM53.4295 27.6791C53.6901 30.5011 54.7506 32.7209 57.1772 34.2128C59.7835 35.8126 62.6594 36.19 65.5893 35.8306C70.2986 35.2554 73.5251 31.8402 73.1476 27.4903C72.86 24.174 71.413 21.9991 68.1776 21.2082C67.1603 20.959 66.1229 20.7846 65.0849 20.6101L65.0848 20.6101C64.2887 20.4763 63.4923 20.3424 62.7044 20.1747C62.612 20.1543 62.5187 20.1346 62.4251 20.1149C61.3619 19.8906 60.2441 19.6548 59.6577 18.2424C59.6846 17.7212 59.7206 16.9932 59.7655 16.0136C60.7721 15.5732 61.7607 15.1328 62.4797 14.8093C65.0321 15.1598 66.7576 16.1484 67.5216 18.3233C67.9893 18.328 68.4449 18.3546 68.8906 18.3806C70.1574 18.4545 71.3437 18.5238 72.5005 18.0717C72.9049 16.4 72.0781 15.2047 71.2153 14.0903C68.5191 10.6212 62.8661 9.52474 58.7859 11.2323C57.0244 11.9693 55.5235 13.0837 54.7236 14.8722C54.4055 15.5848 54.209 16.3514 54.0289 17.0541C53.9546 17.344 53.8831 17.6231 53.8069 17.8829C53.9078 18.3015 53.9979 18.6843 54.0828 19.0456L54.0829 19.0458L54.0831 19.0468L54.0835 19.0484C54.2026 19.5548 54.3118 20.0191 54.4271 20.4803C54.8764 22.2867 56.0178 23.5269 57.7524 24.1201C58.5985 24.4117 59.4738 24.6087 60.3504 24.806C60.8517 24.9189 61.3535 25.0318 61.8506 25.1626C62.2534 25.2684 62.6631 25.3562 63.0746 25.4445C64.481 25.746 65.9085 26.052 67.1531 27.0949V29.3507C66.0596 31.0296 64.4878 31.0094 62.8959 30.989L62.6864 30.9864C60.6665 30.9705 59.8358 29.5332 59.0112 28.1065C58.9039 27.9209 58.7967 27.7354 58.687 27.5533C56.9255 27.3466 55.2449 27.1938 53.4295 27.6791ZM92.2456 16.1214C92.2664 15.8153 92.2899 15.5181 92.3129 15.2286C92.4388 13.6403 92.5462 12.2854 92.0748 10.9627C91.1104 10.7329 90.1422 10.7654 89.1847 10.7976C88.0456 10.8359 86.9217 10.8737 85.8377 10.4684C85.6137 9.42313 85.6424 8.37594 85.6711 7.32861C85.7046 6.10668 85.7381 4.88455 85.3703 3.66502C84.9454 3.65554 84.5256 3.64005 84.1103 3.62472C82.5582 3.56743 81.0682 3.51243 79.6005 3.78186C79.3562 4.90237 79.3843 5.99721 79.4119 7.07102V7.07111C79.4432 8.28825 79.4738 9.47835 79.1062 10.6482C78.4908 10.6871 77.8934 10.726 77.2961 10.7649L77.2947 10.765C76.3747 10.8249 75.4548 10.8848 74.4687 10.9447C74.5198 11.5927 74.4926 12.2145 74.4662 12.8204V12.8205V12.8205V12.8206C74.4182 13.9206 74.3724 14.9678 74.8013 16.0226C75.4626 16.0659 76.1136 16.1074 76.7731 16.1496L76.7779 16.1499L76.779 16.1499L76.7801 16.15L76.7813 16.1501C77.6249 16.204 78.4825 16.2587 79.3938 16.3191V18.7547C79.3938 19.6646 79.3894 20.5745 79.385 21.4844C79.3753 23.4864 79.3657 25.4884 79.4028 27.4903C79.4657 30.9415 81.4249 33.6556 84.6244 34.8689C86.5524 35.6034 88.5138 35.5054 90.552 35.4036H90.5521H90.5522H90.5522C91.1077 35.3758 91.6689 35.3478 92.2366 35.3362V29.7461C91.9474 29.7309 91.6716 29.7064 91.4054 29.6828C90.8856 29.6366 90.4023 29.5937 89.9269 29.6293C87.5722 29.8001 85.7478 28.7935 85.6759 25.3963C85.613 22.781 85.6489 20.1657 85.6849 17.5504C85.6849 17.2832 85.7637 17.016 85.8583 16.6954C85.9101 16.52 85.9666 16.3286 86.0174 16.1124C88.0755 16.1214 90.0617 16.1214 92.2456 16.1214ZM7.38753 17.0025C7.03283 13.5442 7.14184 10.4271 7.25704 7.13324L7.26171 6.99968C10.5241 6.59525 13.5438 6.34361 16.4287 7.59285C18.1453 8.33879 18.8463 9.83068 18.8733 11.754C18.9003 13.7491 18.2532 15.268 16.4737 16.1847C15.7547 16.5532 14.9458 16.9217 14.164 16.9576C12.6316 17.0413 11.0901 17.0281 9.42695 17.014C8.76852 17.0083 8.09104 17.0025 7.38753 17.0025ZM169.737 30.3468L169.738 30.3469C169.807 30.3635 169.875 30.3799 169.942 30.396C170.015 30.4134 170.087 30.4305 170.156 30.447C172.862 30.2762 174.704 29.2786 175.881 27.0947C176.708 25.5669 176.879 23.9492 176.69 22.3225C176.079 17.0559 172.934 15.4741 168.503 16.3459C167.496 16.5436 166.355 17.2716 165.753 18.0984C163.704 20.9115 163.515 24.048 164.989 27.1846C165.672 28.6315 166.84 29.701 168.503 30.0605C168.928 30.1521 169.349 30.2533 169.737 30.3466L169.737 30.3468ZM191.663 20.3273C191.852 16.9031 193.739 15.2315 197.226 15.2584C200.498 15.2854 202.448 17.0829 202.565 20.2104C201.055 20.7587 194.135 20.8575 191.663 20.3273ZM32.7497 20.4624C31.806 23.59 32.4711 26.3401 34.7179 29.0992C34.9812 29.205 35.2502 29.3265 35.5252 29.4506C36.1608 29.7375 36.8284 30.0388 37.5309 30.1956C38.3578 30.3754 39.2835 30.3394 40.1283 30.1866C43.0941 29.6564 44.568 27.6073 45.1522 24.8482C45.988 20.9117 43.5524 15.5194 38.3308 16.1035C35.7245 16.4001 33.5136 17.9369 32.7497 20.4624Z" fill="#1E37DD"/>
</svg>
