<svg width="126" height="126" viewBox="0 0 126 126" fill="none" xmlns="http://www.w3.org/2000/svg">
<path d="M15.7499 76.6298C15.7499 76.6298 22.4791 51.7165 26.7749 48.2798C36.5001 40.4997 25.4025 79.3945 37.7999 78.2048C49.829 77.0505 33.7109 49.9804 45.6749 48.2798C58.2288 46.4953 46.1376 81.875 58.2749 78.2048C69.5229 74.8036 50.0338 51.1656 61.4249 48.2798C73.4979 45.2213 60.1272 80.0105 72.4499 78.2048C84.2664 76.4734 66.8651 49.4529 78.7499 48.2798C90.946 47.0761 75.9446 78.2048 88.1999 78.2048C100.455 78.2048 86.3828 43.4586 97.6499 48.2798C103.305 50.6995 108.675 76.6298 108.675 76.6298" stroke="#ED6B43" stroke-width="3"/>
</svg>
