<svg width="73" height="24" viewBox="0 0 73 24" fill="none" xmlns="http://www.w3.org/2000/svg">
<path d="M46.5 3.99989L46.8496 5.45858L46.5 3.99989ZM58 11.9999L57.5677 13.4362L57.5677 13.4362L58 11.9999ZM72.0745 13.0606C72.6603 12.4748 72.6603 11.525 72.0745 10.9392L62.5286 1.39329C61.9428 0.807502 60.9931 0.807502 60.4073 1.39329C59.8215 1.97908 59.8215 2.92882 60.4073 3.51461L68.8926 11.9999L60.4073 20.4852C59.8215 21.071 59.8215 22.0207 60.4073 22.6065C60.9931 23.1923 61.9428 23.1923 62.5286 22.6065L72.0745 13.0606ZM41 18.4999L41.4547 19.9293L41 18.4999ZM29.5 3.99989L29.9119 5.44223L29.5 3.99989ZM14.8811 3.99989L14.6296 2.52112L14.8811 3.99989ZM46.8496 5.45858C47.7758 5.23659 48.4243 5.40078 49.0165 5.76646C49.6898 6.18225 50.3297 6.88383 51.105 7.86209C51.8271 8.77331 52.6889 9.95757 53.6716 10.957C54.6844 11.9871 55.9345 12.9447 57.5677 13.4362L58.4323 10.5635C57.4462 10.2667 56.6141 9.6707 55.8108 8.85373C54.9774 8.00615 54.2891 7.04986 53.4561 5.99877C52.6763 5.01473 51.7559 3.93225 50.5928 3.21394C49.3484 2.44553 47.8843 2.12561 46.1504 2.54121L46.8496 5.45858ZM57.5677 13.4362C60.2177 14.2338 61.7968 14.2421 63.6743 14.0406C65.4443 13.8506 67.3616 13.4999 71.0139 13.4999V10.4999C67.1523 10.4999 64.9959 10.8815 63.3541 11.0577C61.8198 11.2224 60.6489 11.2307 58.4323 10.5635L57.5677 13.4362ZM41.4547 19.9293C43.5363 19.2672 44.5124 17.696 44.9231 16.0141C45.3065 14.444 45.2449 12.5994 45.2052 11.0523C45.1623 9.37863 45.1432 8.01938 45.4173 6.98822C45.5459 6.50426 45.7195 6.18145 45.9186 5.96284C46.1044 5.75874 46.3785 5.5715 46.8496 5.45858L46.1504 2.54121C45.1491 2.78119 44.3274 3.25439 43.7004 3.94302C43.0865 4.61714 42.7301 5.41938 42.5179 6.21753C42.1104 7.75062 42.1665 9.58391 42.2062 11.1293C42.2491 12.8012 42.2774 14.2022 42.0088 15.3024C41.7674 16.2909 41.3494 16.8147 40.5453 17.0705L41.4547 19.9293ZM29.9119 5.44223C30.466 5.28398 30.79 5.35804 31.0203 5.47661C31.2952 5.61814 31.6209 5.92192 31.9752 6.51023C32.7115 7.73261 33.2353 9.58248 33.8275 11.7266C34.3799 13.7265 35.0023 16.0285 35.993 17.6585C36.5028 18.4973 37.1914 19.3019 38.1556 19.7725C39.1653 20.2652 40.2881 20.3004 41.4547 19.9293L40.5453 17.0705C39.99 17.2471 39.6793 17.1779 39.4714 17.0764C39.2179 16.9527 38.9049 16.6733 38.5566 16.1004C37.8312 14.9069 37.3122 13.0749 36.7192 10.9278C36.166 8.92498 35.5405 6.61503 34.5451 4.9624C34.0336 4.11321 33.3479 3.30069 32.3935 2.80934C31.3945 2.29503 30.2713 2.21963 29.0881 2.55756L29.9119 5.44223ZM23.5 19.9999C24.5409 19.9999 25.4728 19.7212 26.2241 19.1079C26.9559 18.5105 27.3746 17.711 27.624 16.9244C28.0989 15.427 28.0896 13.5093 28.0883 11.8798C28.087 10.1114 28.0881 8.55953 28.3934 7.33964C28.6787 6.19981 29.1414 5.66227 29.9119 5.44223L29.0881 2.55756C26.9123 3.17894 25.9178 4.87462 25.4832 6.6113C25.0686 8.26793 25.0871 10.2359 25.0883 11.8821C25.0897 13.6672 25.0683 15.059 24.7644 16.0175C24.6244 16.4587 24.462 16.6737 24.3271 16.7839C24.2116 16.8781 23.9912 16.9999 23.5 16.9999V19.9999ZM0 17.5001C2.91089 17.5001 5.10421 16.7295 6.81477 15.4754C8.49261 14.2452 9.59848 12.6259 10.4692 11.1293C11.4037 9.52308 11.9689 8.27536 12.7654 7.17786C13.4901 6.17919 14.1948 5.63813 15.1325 5.47866L14.6296 2.52112C12.6268 2.8617 11.3136 4.0707 10.3374 5.41582C9.43293 6.66211 8.61424 8.35193 7.87609 9.62071C7.07415 10.9991 6.2187 12.1924 5.04089 13.056C3.89579 13.8956 2.33911 14.5001 0 14.5001V17.5001ZM15.1325 5.47866C15.8353 5.35915 16.188 5.46833 16.3689 5.56865C16.5545 5.67155 16.763 5.87832 16.9638 6.33324C17.4095 7.34326 17.5466 8.89509 17.6937 10.8825C17.8281 12.6981 17.9727 14.8879 18.6477 16.604C18.9988 17.4968 19.5306 18.3689 20.3698 19.0139C21.2279 19.6734 22.2832 19.9999 23.5 19.9999V16.9999C22.8418 16.9999 22.4558 16.8334 22.1979 16.6352C21.9211 16.4225 21.6622 16.0721 21.4395 15.5059C20.9668 14.3041 20.8312 12.6298 20.6855 10.6611C20.5525 8.86406 20.4098 6.71121 19.7084 5.122C19.3356 4.27731 18.7539 3.46084 17.8239 2.94509C16.8892 2.42676 15.8012 2.32188 14.6296 2.52112L15.1325 5.47866Z" fill="black"/>
</svg>
