<svg width="30" height="14" viewBox="0 0 41 19" fill="none" xmlns="http://www.w3.org/2000/svg">
<path d="M9.48 18.168C7.88 18.168 6.408 17.792 5.064 17.04C3.736 16.288 2.68 15.248 1.896 13.92C1.112 12.592 0.72 11.096 0.72 9.432C0.72 7.768 1.112 6.272 1.896 4.944C2.68 3.616 3.736 2.584 5.064 1.848C6.408 1.096 7.88 0.719999 9.48 0.719999C11.08 0.719999 12.544 1.096 13.872 1.848C15.2 2.584 16.248 3.616 17.016 4.944C17.8 6.272 18.192 7.768 18.192 9.432C18.192 11.096 17.8 12.592 17.016 13.92C16.248 15.248 15.192 16.288 13.848 17.04C12.52 17.792 11.064 18.168 9.48 18.168ZM9.48 13.2C10.536 13.2 11.352 12.864 11.928 12.192C12.504 11.504 12.792 10.584 12.792 9.432C12.792 8.264 12.504 7.344 11.928 6.672C11.352 5.984 10.536 5.64 9.48 5.64C8.408 5.64 7.584 5.984 7.008 6.672C6.432 7.344 6.144 8.264 6.144 9.432C6.144 10.584 6.432 11.504 7.008 12.192C7.584 12.864 8.408 13.2 9.48 13.2ZM40.5381 1.008V18H35.2341V9.528L32.6181 18H28.0581L25.4421 9.528V18H20.1141V1.008H26.6421L30.3861 11.208L34.0341 1.008H40.5381Z" fill="url(#paint0_linear_830_519)"/>
<defs>
<linearGradient id="paint0_linear_830_519" x1="21" y1="-8" x2="21" y2="28" gradientUnits="userSpaceOnUse">
<stop stop-color="#3d5cbc"/>
<stop offset="1" stop-color="#3d5cbc"/>
</linearGradient>
</defs>
</svg>
