<svg width="188" height="24" viewBox="0 0 188 24" fill="none" xmlns="http://www.w3.org/2000/svg">
<path fill-rule="evenodd" clip-rule="evenodd" d="M44.8108 6.33284C43.8931 7.21154 42.9437 8.74935 42.9437 11.0714C42.9437 12.9859 43.5766 14.5234 44.8742 15.7784C46.235 17.0651 47.7541 17.5048 49.4003 17.5048C51.5523 17.5048 53.0715 16.72 54.0842 15.7159C54.907 14.9316 55.9201 13.4564 55.9201 11.0396C55.9201 8.8748 55.0336 7.27413 54.0842 6.33284C53.0399 5.32868 51.3624 4.54413 49.4316 4.54413C47.596 4.54413 45.9504 5.20323 44.8108 6.33284ZM57.6291 3.13205C59.623 5.04621 60.9207 7.80778 60.9207 11.0396C60.9207 13.833 59.9077 16.6887 57.6291 18.8853C55.6667 20.7682 53.0081 21.9607 49.4634 21.9607C45.5071 21.9607 42.8169 20.3916 41.2344 18.8853C39.2089 17.0025 37.9428 14.1783 37.9428 11.103C37.9428 8.09025 39.3038 5.04621 41.2028 3.16335C42.6273 1.75127 45.2538 0.0880127 49.4634 0.0880127C52.755 0.0880127 55.5084 1.09244 57.6291 3.13205Z" fill="#3d5cbc"/>
<path fill-rule="evenodd" clip-rule="evenodd" d="M68.2248 10.1928H69.9654C70.6301 10.1928 71.8013 10.1612 72.5922 9.40824C73.0355 8.96875 73.3835 8.24706 73.3835 7.33706C73.3835 6.45836 73.0671 5.73667 72.5922 5.29718C71.8644 4.60679 70.8201 4.51263 69.8704 4.51263H68.2248V10.1928ZM70.7882 0.558594C72.6241 0.558594 74.6496 0.80977 76.3271 2.28471C78.1311 3.85353 78.3841 5.92499 78.3841 7.36863C78.3841 10.0045 77.3717 11.4794 76.5804 12.2953C74.9029 13.9898 72.6872 14.1468 71.1999 14.1468H68.2248V21.49H63.3507V0.558594H70.7882Z" fill="#3d5cbc"/>
<path fill-rule="evenodd" clip-rule="evenodd" d="M78.3933 21.4901L81.7796 0.558716H85.8308L91.0848 13.0797L96.3387 0.558716H100.39L103.777 21.4901H98.9024L97.225 9.00044L91.9394 21.4901H90.2304L84.9449 9.00044L83.2674 21.4901H78.3933Z" fill="#3d5cbc"/>
<path fill-rule="evenodd" clip-rule="evenodd" d="M111.653 6.33284C110.735 7.21154 109.786 8.74935 109.786 11.0714C109.786 12.9859 110.419 14.5234 111.716 15.7784C113.077 17.0651 114.597 17.5048 116.242 17.5048C118.394 17.5048 119.914 16.72 120.926 15.7159C121.749 14.9316 122.762 13.4564 122.762 11.0396C122.762 8.8748 121.876 7.27413 120.926 6.33284C119.882 5.32868 118.205 4.54413 116.273 4.54413C114.438 4.54413 112.792 5.20323 111.653 6.33284ZM124.471 3.13205C126.465 5.04621 127.763 7.80778 127.763 11.0396C127.763 13.833 126.75 16.6887 124.471 18.8853C122.509 20.7682 119.85 21.9607 116.306 21.9607C112.349 21.9607 109.659 20.3916 108.076 18.8853C106.051 17.0025 104.785 14.1783 104.785 11.103C104.785 8.09025 106.146 5.04621 108.045 3.16335C109.469 1.75127 112.096 0.0880127 116.306 0.0880127C119.597 0.0880127 122.35 1.09244 124.471 3.13205Z" fill="#3d5cbc"/>
<path fill-rule="evenodd" clip-rule="evenodd" d="M130.193 21.4901V0.558716H134.434L145.891 14.0525V0.558716H150.765V21.4901H146.524L135.067 7.93315V21.4901H130.193Z" fill="#3d5cbc"/>
<path fill-rule="evenodd" clip-rule="evenodd" d="M159.206 9.28276L166.421 0.558838H172.372L163.826 10.4752L173.037 21.4902H166.77L159.206 12.2013V21.4902H154.331V0.558838H159.206V9.28276Z" fill="#3d5cbc"/>
<path fill-rule="evenodd" clip-rule="evenodd" d="M184.844 5.67389C183.262 4.26181 181.901 4.16766 181.3 4.16766C180.635 4.16766 179.812 4.26181 179.243 4.88934C178.926 5.20311 178.705 5.67389 178.705 6.20726C178.705 6.70934 178.863 7.08597 179.179 7.36844C179.686 7.83922 180.413 8.02754 181.838 8.56091L183.42 9.15715C184.338 9.5022 185.478 9.97299 186.301 10.7575C187.535 11.9187 187.851 13.4249 187.851 14.649C187.851 16.8143 187.091 18.6972 185.984 19.8268C184.117 21.7725 181.395 21.9608 180.002 21.9608C178.483 21.9608 177.154 21.7412 175.824 21.0819C174.748 20.5485 173.514 19.5756 172.723 18.7913L175.255 15.3394C175.793 15.8728 176.647 16.5944 177.217 16.9398C178.04 17.4419 178.894 17.6928 179.876 17.6928C180.509 17.6928 181.395 17.5673 182.091 16.9711C182.502 16.626 182.851 16.0611 182.851 15.2765C182.851 14.5861 182.566 14.1466 182.123 13.77C181.553 13.2995 180.256 12.8287 179.654 12.6091L177.913 12.0129C176.932 11.6675 175.793 11.2283 174.97 10.3496C173.862 9.18844 173.704 7.71377 173.704 6.70934C173.704 4.85805 174.273 3.28895 175.54 2.00232C177.027 0.496087 178.8 0.0878906 180.762 0.0878906C182.218 0.0878906 184.56 0.339067 187.029 2.15934L184.844 5.67389Z" fill="#3d5cbc"/>
<path fill-rule="evenodd" clip-rule="evenodd" d="M24.0301 0.954834V5.04908H28.5733V21.9608H33.3989V5.04908H37.9427V0.954834H24.0301Z" fill="#3d5cbc"/>
<path fill-rule="evenodd" clip-rule="evenodd" d="M13.313 22.2313C11.2182 22.2313 10.7209 21.4214 9.27403 21.4214H9.23691C7.77162 21.4214 7.28926 22.2313 5.19452 22.2313C1.51094 22.2115 0.00199508 18.4221 1.81741 16.8079C2.74485 16.0869 3.91337 16.5227 4.6182 17.5862C5.32317 18.6496 6.38041 20.3875 8.64343 20.2854C8.05289 20.0458 7.59502 19.8124 7.23025 19.5789C9.35486 18.8323 10.8579 17.9163 11.9148 17.039C12.0568 17.3969 12.2741 17.7436 12.4853 18.0249C12.0687 18.6106 11.5864 18.875 10.3004 19.4637C12.0811 19.3196 12.7242 18.7428 13.7754 17.5892C14.6385 16.6424 15.7611 16.0869 16.6885 16.8079C18.5039 18.4221 16.9967 22.2115 13.313 22.2313ZM4.03089 12.4463C4.8233 11.7313 5.73574 11.5196 5.88348 11.4892C6.54682 12.4222 7.60456 13.3477 9.23691 13.3502C10.9064 13.3477 11.9422 12.4222 12.6056 11.4892C12.6845 11.5054 12.9852 11.5737 13.3688 11.7427C11.9615 15.6911 7.8816 16.9657 6.46261 17.3089C6.68889 16.816 6.82457 16.2839 6.67712 15.895C6.53024 15.5073 6.17014 15.1812 5.77178 14.9679C5.76625 14.7512 5.76905 14.1024 5.97236 13.6479C5.54952 14.0998 5.34406 14.516 5.26222 14.7626C5.06264 14.7081 4.87168 14.6867 4.71095 14.7054C4.2487 14.7593 3.6069 15.2429 3.31228 15.4836C3.23862 15.4629 3.16367 15.4453 3.0875 15.4312C3.20567 14.2399 3.51264 13.13 4.03089 12.4463ZM5.12309 9.04527C4.44705 8.80579 4.09492 7.80919 4.96659 7.11236C5.24391 7.2892 5.48139 7.61177 5.48139 7.61177C4.98066 5.0432 6.45443 2.38276 9.25213 2.38052C12.0497 2.38276 13.5236 5.0432 13.0227 7.61177C13.0227 7.61177 13.2603 7.2892 13.5375 7.11236C14.4092 7.80919 14.0571 8.80579 13.3811 9.04527C13.1999 8.89515 13.1015 8.80411 12.9572 8.61813C12.7565 10.1636 11.6528 12.4655 9.25213 12.4677C6.85121 12.4655 5.74766 10.1636 5.54694 8.61813C5.40271 8.80411 5.30429 8.89515 5.12309 9.04527ZM5.53947 17.582C5.37773 17.2842 5.20005 16.9705 4.95216 16.6341C4.74239 16.3495 4.39299 16.011 3.95651 15.7596C4.15042 15.5635 4.48646 15.2835 4.84699 15.2701C5.27399 15.2543 5.94415 15.6758 6.08356 16.1713C6.22657 16.6793 5.76927 17.3076 5.53947 17.582ZM14.5476 15.7596C14.1112 16.011 13.7617 16.3495 13.552 16.6341C13.3041 16.9705 13.1086 17.1622 12.8904 17.4739C12.6607 17.1994 12.2776 16.6793 12.4205 16.1713C12.56 15.6758 13.2303 15.2543 13.6571 15.2701C14.0176 15.2835 14.3536 15.5635 14.5476 15.7596ZM14.4687 12.4463C14.9868 13.13 15.2962 14.2399 15.4144 15.4312C15.3381 15.4453 15.2643 15.4629 15.1906 15.4836C14.9233 15.2652 14.3704 14.8466 13.9248 14.7308C14.2171 14.2225 14.307 13.9003 14.307 13.9003C14.1523 14.1825 13.9817 14.4509 13.7984 14.7062C13.7964 14.706 13.7945 14.7056 13.7926 14.7054C13.1743 14.6333 12.1088 15.1511 11.8266 15.895C11.7303 16.1491 11.7389 16.4331 11.8106 16.7198C9.66872 18.3557 7.21525 19.0393 6.68336 19.174C6.34566 18.8804 6.11888 18.5832 5.92699 18.2731C12.0409 16.7725 13.4998 12.9399 13.7792 11.9496C14.0056 12.0793 14.2424 12.2422 14.4687 12.4463ZM9.27403 22.5375C10.4241 22.5375 10.2599 22.8039 12.2384 23.2125C17.729 24.2218 19.6996 18.6418 17.7997 16.4366C17.3854 15.9557 16.9614 15.6684 16.5476 15.5206C16.5134 15.2582 16.2032 13.0374 15.3389 11.9654C14.217 10.8731 13.2303 10.5901 13.1659 10.5726C13.3391 10.2356 13.4988 9.94818 13.5849 9.77134C14.3195 9.7864 15.708 7.93162 13.9638 6.5669C13.9638 2.37243 10.4241 1.37591 9.23691 1.37256C8.08684 1.37591 4.52516 2.37243 4.52516 6.5669C2.78096 7.93162 4.18186 9.78647 4.91634 9.77134C5.00241 9.94832 5.16351 10.2357 5.33674 10.5727C5.27256 10.5902 4.28639 10.8733 3.16446 11.9657C2.30019 13.0376 1.99027 15.2585 1.95625 15.5209C1.54245 15.6689 1.11854 15.9563 0.704167 16.4372C-1.19574 18.6425 0.778469 24.2218 6.26899 23.2125C8.24751 22.8039 8.0745 22.5375 9.23691 22.5375H9.27403ZM9.71887 5.36327C10.0015 5.38869 10.2518 5.18682 10.278 4.91236C10.3042 4.6379 10.0962 4.3948 9.8136 4.36937C9.53106 4.34395 9.28072 4.54582 9.25445 4.82028C9.22826 5.09474 9.43614 5.33784 9.71887 5.36327ZM9.71887 4.36505C10.0015 4.39047 10.2519 4.18861 10.278 3.91415C10.3041 3.63968 10.0962 3.39658 9.81361 3.37115C9.53107 3.34573 9.28072 3.5476 9.25445 3.82206C9.22826 4.09652 9.43615 4.33963 9.71887 4.36505ZM8.78563 4.36505C9.06828 4.33963 9.27618 4.09652 9.25 3.82206C9.22381 3.5476 8.97345 3.34573 8.69079 3.37115C8.40814 3.39658 8.20024 3.63968 8.22642 3.91415C8.25261 4.18861 8.50297 4.39047 8.78563 4.36505ZM8.69079 5.36759C8.40814 5.39301 8.20024 5.63612 8.22642 5.91058C8.25261 6.18504 8.50297 6.38691 8.78563 6.36149C9.06828 6.33606 9.27618 6.09295 9.25 5.81849C9.22381 5.54403 8.97345 5.34216 8.69079 5.36759ZM9.71882 6.36149C10.0016 6.38691 10.2519 6.18504 10.278 5.91058C10.3042 5.63612 10.0963 5.39301 9.81365 5.36759C9.53109 5.34216 9.28072 5.54403 9.25445 5.81849C9.22826 6.09295 9.43616 6.33606 9.71882 6.36149ZM8.69079 4.36937C8.40814 4.3948 8.20024 4.6379 8.22642 4.91236C8.25261 5.18682 8.50297 5.38869 8.78563 5.36327C9.06819 5.33784 9.27618 5.09474 9.25 4.82028C9.22381 4.54582 8.97345 4.34395 8.69079 4.36937Z" fill="#3d5cbc"/>
</svg>
